<?xml version="1.0" standalone="no"?>
<!DOCTYPE svg PUBLIC "-//W3C//DTD SVG 20010904//EN"
 "http://www.w3.org/TR/2001/REC-SVG-20010904/DTD/svg10.dtd">
<svg version="1.0" xmlns="http://www.w3.org/2000/svg"
 width="512.000000pt" height="401.000000pt" viewBox="0 0 512.000000 401.000000"
 preserveAspectRatio="xMidYMid meet">

<g transform="translate(0.000000,401.000000) scale(0.100000,-0.100000)"
fill="#000000" stroke="none">
<path d="M1861 3599 c-585 -62 -1093 -407 -1350 -919 -120 -241 -169 -433
-178 -697 -7 -198 5 -311 49 -487 73 -292 214 -541 433 -762 252 -255 550
-413 908 -481 144 -27 486 -24 627 6 363 77 662 244 910 509 87 92 210 258
210 282 0 6 5 8 10 5 6 -4 10 -102 10 -261 l0 -254 403 2 402 3 3 373 2 372
319 0 c176 0 326 3 335 6 14 5 16 49 16 385 l0 379 -332 2 -333 3 -5 380 -5
380 -384 5 -384 5 -182 309 c-101 169 -187 312 -193 318 -6 6 -31 -26 -67 -86
-32 -53 -60 -96 -62 -96 -2 0 -19 11 -36 24 -145 109 -412 223 -622 265 -191
38 -338 47 -504 30z m456 -303 c120 -30 265 -84 343 -128 83 -46 210 -131 210
-140 0 -5 -24 -48 -54 -96 l-54 -87 366 -3 367 -2 -5 -385 -5 -386 -267 0
c-237 0 -268 -1 -268 -15 0 -29 110 -515 124 -549 8 -18 26 -41 40 -50 14 -10
26 -21 26 -26 0 -5 -49 -9 -110 -9 -91 0 -110 3 -110 15 0 8 6 15 14 15 44 0
48 57 17 205 -12 52 -21 97 -21 100 0 3 -39 5 -87 5 l-88 0 3 -222 c1 -123 5
-229 7 -236 4 -10 57 -13 237 -12 128 0 236 1 241 0 11 0 -87 -154 -143 -225
-77 -97 -222 -230 -322 -296 -163 -107 -311 -168 -512 -211 -144 -31 -388 -31
-532 0 -301 65 -517 181 -724 391 -63 64 -139 150 -167 192 -101 148 -208 399
-217 509 -2 25 -9 96 -15 159 -33 298 22 558 172 819 189 329 504 567 876 662
135 34 186 39 376 35 154 -2 195 -7 282 -29z"/>
<path d="M2770 1966 c-12 -56 -20 -112 -19 -125 4 -22 8 -23 84 -23 44 0 79 4
79 9 -3 16 -46 208 -50 224 -3 10 -16 16 -38 16 l-34 0 -22 -101z"/>
</g>
</svg>
