<?xml version="1.0" standalone="no"?>
<!DOCTYPE svg PUBLIC "-//W3C//DTD SVG 20010904//EN"
 "http://www.w3.org/TR/2001/REC-SVG-20010904/DTD/svg10.dtd">
<svg version="1.0" xmlns="http://www.w3.org/2000/svg"
 width="400.000000pt" height="400.000000pt" viewBox="0 0 400.000000 400.000000"
 preserveAspectRatio="xMidYMid meet">

<g transform="translate(0.000000,400.000000) scale(0.100000,-0.100000)"
fill="#000000" stroke="none">
<path d="M2303 3238 c-48 -39 -90 -73 -92 -75 -3 -2 7 -16 22 -30 l27 -27 28
27 c35 33 42 33 71 3 20 -21 26 -23 42 -13 25 15 24 25 -3 54 -18 19 -20 27
-11 41 6 9 16 16 23 14 6 -1 9 2 5 8 -3 6 -9 8 -13 6 -4 -2 -14 3 -22 12 -13
14 -12 15 4 9 15 -6 17 -5 8 6 -9 10 -8 17 0 25 7 7 9 12 6 12 -4 0 -46 -32
-95 -72z"/>
<path d="M2436 3226 c6 -15 4 -17 -6 -11 -9 6 -11 4 -5 -4 5 -9 10 -10 18 -2
8 8 7 14 -2 24 -10 10 -11 8 -5 -7z"/>
<path d="M2470 3232 c0 -6 5 -14 10 -17 6 -4 7 -11 4 -17 -4 -7 -2 -8 5 -4 9
6 9 12 -1 24 -7 10 -14 19 -15 21 -2 2 -3 -1 -3 -7z"/>
<path d="M1534 3199 c-10 -13 -13 -19 -6 -15 7 5 11 3 10 -4 -2 -7 4 -14 12
-15 27 -5 110 -45 110 -54 0 -9 -33 -41 -42 -41 -4 0 -18 20 -32 45 -15 25
-30 44 -34 43 -4 -1 -15 2 -25 7 -36 16 -32 3 52 -150 48 -86 50 -89 72 -69
21 19 25 44 9 60 -6 6 1 23 21 47 23 28 36 36 51 31 18 -5 58 19 58 36 0 8
-48 30 -140 63 -36 13 -72 27 -81 31 -9 4 -22 -1 -35 -15z m52 -11 c3 -4 -1
-5 -10 -4 -8 1 -18 5 -22 8 -3 4 1 5 10 4 8 -1 18 -5 22 -8z"/>
<path d="M2453 3185 c0 -8 4 -12 9 -9 5 3 6 10 3 15 -9 13 -12 11 -12 -6z"/>
<path d="M2190 3111 c0 -6 -13 -9 -30 -7 l-29 3 30 -41 c16 -22 46 -62 67 -88
20 -25 69 -86 107 -134 39 -48 85 -104 103 -125 18 -21 43 -51 55 -68 12 -16
78 -100 147 -186 69 -87 148 -186 175 -221 28 -35 106 -133 175 -219 69 -86
136 -172 150 -190 14 -18 70 -88 124 -156 55 -68 129 -160 164 -204 35 -44 72
-97 81 -117 l18 -38 20 28 c36 48 37 45 -157 288 -111 138 -98 122 -304 380
-88 109 -162 201 -166 204 -8 7 -220 273 -248 313 -13 18 -36 46 -51 62 -23
25 -109 133 -261 328 -92 118 -170 205 -170 188z"/>
<path d="M2460 3096 c-36 -12 -84 -31 -108 -42 -42 -19 -42 -19 -26 -42 13
-18 23 -23 46 -20 24 4 34 -1 56 -30 22 -28 24 -37 14 -53 -10 -16 -9 -24 10
-50 21 -28 23 -29 36 -12 21 29 99 176 107 203 7 23 7 24 -10 10 -11 -9 -16
-10 -11 -2 4 6 3 12 -2 12 -5 0 -15 11 -22 25 -16 30 -9 29 -90 1z m68 -58
c-8 -13 -21 -33 -28 -45 l-14 -21 -19 24 c-22 29 -23 27 23 47 49 21 54 20 38
-5z"/>
<path d="M1807 3093 c-7 -8 -19 -22 -28 -32 -18 -20 -248 -303 -294 -361 -115
-146 -315 -391 -342 -420 -18 -19 -33 -38 -33 -41 0 -4 -6 -14 -13 -21 -14
-14 -244 -298 -287 -353 -36 -47 -273 -339 -279 -345 -10 -8 -77 -94 -86 -109
-5 -10 -4 -12 3 -7 7 4 12 1 12 -7 0 -8 6 -19 13 -25 9 -8 28 10 77 70 36 44
81 98 101 121 19 23 44 54 55 68 33 46 178 224 187 230 4 3 18 19 30 36 12 17
94 119 182 228 88 108 226 278 308 378 81 100 200 247 264 327 64 80 139 171
166 203 27 32 48 60 45 62 -13 13 -71 11 -81 -2z"/>
<path d="M2634 2943 c-12 -2 -39 -19 -59 -37 -34 -28 -39 -38 -43 -89 -5 -62
9 -94 53 -123 22 -14 26 -14 49 3 30 22 33 43 6 43 -30 0 -54 43 -43 77 22 65
108 69 128 6 l10 -31 28 20 c15 11 27 23 27 27 0 14 -53 70 -61 65 -5 -3 -6 3
-2 12 4 11 3 15 -4 11 -6 -4 -13 -3 -15 1 -4 12 -47 20 -74 15z"/>
<path d="M1289 2904 c-23 -25 -23 -27 -5 -38 11 -6 40 -31 65 -55 25 -24 60
-54 78 -68 l32 -24 38 41 c50 55 59 75 43 95 -13 16 -40 21 -40 8 -1 -5 -9
-19 -20 -31 -22 -27 -19 -29 -118 55 l-49 42 -24 -25z"/>
<path d="M2739 2745 c-37 -30 -71 -67 -76 -82 -14 -42 2 -86 47 -127 64 -57
83 -52 206 59 43 38 44 41 29 63 -9 12 -22 22 -29 22 -7 0 -39 -22 -70 -50
-66 -58 -102 -65 -112 -23 -6 24 0 34 60 88 64 58 66 61 51 83 -9 12 -22 22
-28 22 -7 0 -42 -25 -78 -55z"/>
<path d="M1140 2703 c-8 -3 -32 -23 -52 -44 -33 -32 -38 -44 -38 -84 0 -81 50
-135 125 -135 98 0 162 98 126 193 -19 49 -113 90 -161 70z m84 -84 c65 -51 1
-143 -72 -105 -32 16 -42 34 -42 71 0 53 65 73 114 34z"/>
<path d="M1769 2684 c-7 -9 -14 -45 -15 -83 -2 -36 0 -55 2 -41 14 75 40 102
86 93 24 -5 62 -33 44 -33 -10 0 15 -44 30 -53 8 -4 14 -16 14 -25 0 -27 39
-98 44 -81 2 8 9 29 15 47 5 18 6 30 2 27 -5 -3 -11 2 -15 10 -3 8 3 19 12 24
10 6 12 11 5 11 -8 0 -13 14 -13 35 0 41 -26 60 -62 46 -18 -7 -31 -3 -58 15
-40 28 -72 31 -91 8z"/>
<path d="M2925 2538 c-33 -28 -75 -64 -93 -80 l-33 -29 35 -48 c53 -71 60 -76
91 -55 l26 17 -26 27 c-14 14 -25 33 -24 41 0 7 29 38 65 67 35 29 64 59 64
66 0 12 -31 47 -41 46 -2 -1 -31 -24 -64 -52z"/>
<path d="M1757 2507 l-38 -32 19 -61 c11 -34 30 -73 43 -86 26 -26 79 -68 67
-54 -4 5 -3 15 4 23 6 7 8 17 4 20 -4 4 2 12 14 18 19 10 19 11 -5 37 -14 15
-31 51 -39 80 -12 47 -12 55 2 71 29 32 -29 20 -71 -16z"/>
<path d="M2245 2504 c-45 -23 -56 -38 -22 -30 42 10 66 -1 81 -37 l14 -32 1
35 c1 33 -21 80 -37 80 -4 0 -20 -7 -37 -16z"/>
<path d="M3015 2364 c-49 -42 -91 -80 -93 -85 -6 -16 99 -118 129 -124 96 -21
178 71 145 165 -12 35 -72 120 -85 120 -3 0 -46 -34 -96 -76z m125 -75 c0 -30
-40 -69 -71 -69 -11 0 -29 10 -40 21 l-21 21 23 22 c13 12 37 32 54 44 28 22
30 22 42 6 7 -10 13 -30 13 -45z"/>
<path d="M869 2399 c-53 -57 -51 -123 6 -182 65 -67 153 -55 199 26 l21 38
-30 25 -30 24 -3 -30 c-3 -31 -34 -60 -65 -60 -26 0 -67 48 -67 81 0 18 10 36
29 52 28 24 29 26 12 41 -25 23 -39 20 -72 -15z"/>
<path d="M2136 2421 c-17 -7 -16 -8 7 -24 24 -15 25 -15 30 3 6 22 -10 30 -37
21z"/>
<path d="M1551 2356 c-12 -15 -3 -51 23 -88 12 -17 13 -15 9 25 -6 48 -1 55
51 68 27 6 24 7 -20 8 -33 1 -56 -4 -63 -13z"/>
<path d="M2110 2341 c0 -6 4 -13 10 -16 6 -3 7 1 4 9 -7 18 -14 21 -14 7z"/>
<path d="M1647 2278 c-10 -8 -18 -35 -23 -74 -6 -58 -5 -62 22 -83 16 -12 40
-25 55 -28 22 -4 28 -12 33 -42 9 -57 7 -69 -11 -75 -10 -4 -31 -24 -46 -46
l-29 -41 23 -55 c22 -53 24 -55 59 -52 28 2 35 7 33 23 -2 18 -1 18 9 -2 13
-26 28 -30 28 -7 0 8 -4 13 -9 10 -12 -8 -51 74 -51 107 0 17 9 32 25 43 14 9
22 21 18 27 -3 6 -1 7 5 3 7 -4 12 -2 12 4 0 6 5 8 10 5 11 -7 13 14 4 68 -5
25 -12 37 -23 37 -9 0 -29 9 -45 19 -16 11 -35 17 -42 14 -9 -3 -12 2 -9 20 3
13 6 50 8 81 3 52 2 56 -18 56 -12 0 -29 -6 -38 -12z"/>
<path d="M2024 2226 c-19 -14 -19 -15 4 -45 12 -17 22 -34 22 -40 0 -13 28
-22 35 -11 9 15 19 12 61 -16 21 -15 34 -20 28 -13 -6 8 -17 31 -23 51 -26 79
-78 110 -127 74z"/>
<path d="M2180 2189 c0 -14 31 -81 36 -76 3 3 -4 22 -15 44 -11 21 -20 35 -21
32z"/>
<path d="M3185 2145 c-60 -23 -110 -46 -110 -51 0 -5 7 -20 17 -32 13 -19 20
-22 36 -13 16 8 25 4 52 -24 31 -32 32 -37 21 -59 -12 -21 -11 -28 5 -50 11
-14 21 -25 24 -26 5 0 51 76 111 185 l28 50 -25 33 c-14 17 -31 31 -37 31 -7
-1 -61 -20 -122 -44z m84 -75 c-13 -16 -26 -30 -31 -30 -8 0 -32 40 -26 44 27
16 74 32 76 25 2 -4 -7 -22 -19 -39z"/>
<path d="M652 2132 c-16 -15 -32 -38 -37 -50 -10 -33 12 -78 45 -92 24 -10 34
-8 67 11 43 24 77 20 71 -8 -2 -10 -18 -24 -36 -32 -32 -15 -39 -34 -23 -60
12 -18 73 11 96 45 29 44 27 83 -5 115 -34 34 -57 36 -104 8 -19 -11 -40 -18
-46 -14 -17 11 -11 34 13 46 31 16 30 15 17 38 -14 27 -22 26 -58 -7z"/>
<path d="M2216 2072 c-2 -4 -1 -14 4 -22 7 -11 9 -9 7 8 -1 24 -3 26 -11 14z"/>
<path d="M2063 2018 c-6 -24 -13 -50 -17 -58 -4 -11 2 -19 22 -26 43 -17 78 6
93 59 7 23 16 47 21 53 5 7 -11 11 -50 13 l-58 2 -11 -43z"/>
<path d="M3341 1955 c-50 -42 -91 -80 -91 -84 0 -4 24 -34 53 -65 43 -48 59
-58 92 -62 72 -9 137 50 139 126 0 31 -8 51 -40 96 -22 32 -45 59 -51 61 -6 2
-51 -31 -102 -72z m119 -44 c14 -34 3 -62 -34 -86 -17 -12 -30 -13 -49 -6 -45
17 -44 32 8 78 27 24 52 43 56 43 4 0 12 -13 19 -29z"/>
<path d="M2300 1940 c-23 -23 -24 -33 -10 -61 12 -22 59 -26 78 -7 18 18 15
53 -6 71 -24 22 -38 21 -62 -3z"/>
<path d="M459 1893 c-13 -16 -35 -40 -47 -54 l-23 -26 91 -79 c50 -44 95 -80
99 -82 4 -1 28 24 54 56 l46 59 -20 19 c-21 19 -22 19 -50 -15 -24 -29 -30
-32 -44 -21 -14 11 -12 16 11 47 14 19 24 35 23 36 -2 2 -11 8 -21 15 -14 11
-21 8 -45 -18 -26 -28 -31 -30 -42 -16 -11 12 -8 21 13 49 20 26 23 36 14 45
-18 18 -32 15 -59 -15z"/>
<path d="M1868 1801 c-9 -11 -18 -27 -20 -38 -2 -10 -10 -17 -17 -15 -37 8
-69 -27 -62 -70 5 -41 -71 -28 -90 15 -8 18 -8 17 -3 -8 7 -39 19 -45 81 -42
38 1 56 -2 65 -14 28 -34 85 -59 134 -58 42 0 46 2 30 12 -11 7 -31 23 -44 37
-21 22 -24 31 -19 83 3 39 2 55 -5 50 -7 -4 -8 -1 -3 6 7 13 -12 61 -24 61 -4
0 -14 -9 -23 -19z"/>
<path d="M2207 1791 l-17 -29 40 -4 c40 -4 53 5 25 16 -8 3 -15 15 -15 26 0
28 -13 25 -33 -9z"/>
<path d="M3520 1749 c-47 -39 -89 -74 -94 -79 -10 -10 29 -73 70 -111 l24 -23
21 20 20 21 -27 32 c-20 24 -24 35 -15 44 8 8 18 4 41 -18 29 -27 30 -28 49
-11 20 18 20 19 -4 50 -19 25 -22 35 -13 44 9 9 20 5 45 -20 32 -31 33 -31 52
-13 20 17 20 18 -26 76 -25 33 -49 59 -52 59 -3 0 -44 -32 -91 -71z"/>
<path d="M2340 1754 c-17 -9 -20 -14 -9 -14 9 0 22 7 29 15 15 18 13 18 -20
-1z"/>
<path d="M2041 1667 c-16 -74 -9 -87 46 -87 42 0 45 2 39 23 -29 115 -31 117
-52 117 -17 0 -23 -9 -33 -53z"/>
<path d="M2246 1609 c-4 -23 -5 -44 -2 -46 2 -2 7 14 11 37 4 23 5 43 2 46 -2
3 -7 -14 -11 -37z"/>
<path d="M2221 1531 c-15 -26 -53 -36 -81 -21 -17 9 -21 9 -15 0 12 -20 55
-31 75 -20 21 11 45 48 37 57 -3 2 -10 -5 -16 -16z"/>
<path d="M1082 1203 l3 -248 50 0 50 0 3 98 3 97 34 0 35 0 0 55 0 55 -35 0
c-35 0 -35 0 -35 45 l0 45 53 0 54 0 -6 37 -6 36 -70 0 c-39 0 -78 3 -87 8
-11 6 -18 5 -21 -4 -3 -7 -6 -5 -6 6 -1 9 -6 17 -11 17 -7 0 -9 -85 -8 -247z"/>
<path d="M1528 1443 c7 -3 16 -2 19 1 4 3 -2 6 -13 5 -11 0 -14 -3 -6 -6z"/>
<path d="M1722 1428 c-5 -21 -6 -21 -13 -2 -4 10 -7 -91 -6 -226 l2 -245 25
-2 c65 -5 70 1 70 82 0 68 2 75 20 75 18 0 20 -7 20 -75 0 -70 1 -75 24 -81
13 -3 37 -4 52 -2 l29 3 3 84 c2 63 -1 89 -13 107 -14 22 -14 26 0 40 20 20
22 216 3 232 -17 13 -191 11 -200 -3 -5 -6 -8 -3 -8 7 0 9 6 19 13 21 9 4 9 6
-1 6 -8 1 -16 -9 -20 -21z m124 -130 c-3 -17 -6 -41 -6 -54 0 -17 -6 -24 -20
-24 -18 0 -20 7 -20 58 0 67 5 76 32 61 16 -9 19 -17 14 -41z"/>
<path d="M2257 1422 c3 -18 2 -23 -5 -14 -6 9 -35 13 -88 14 -43 1 -85 6 -92
11 -9 7 -11 6 -6 -7 3 -9 1 -16 -5 -16 -6 0 -11 6 -11 13 0 25 -20 -18 -20
-45 0 -23 5 -27 33 -30 l32 -3 0 -195 0 -195 40 -1 c22 -1 46 1 52 3 9 4 13
56 15 196 l3 192 33 3 c31 3 32 5 32 47 0 24 -4 46 -9 49 -4 3 -6 -7 -4 -22z"/>
<path d="M2366 1442 c-4 -6 -4 -12 1 -12 4 0 3 -4 -4 -8 -8 -5 -13 -74 -15
-237 l-3 -230 95 -1 c52 -1 101 3 108 9 6 5 12 31 12 58 l0 49 -55 0 -55 0 0
39 c0 39 1 40 37 43 31 2 38 7 37 23 -4 91 -1 85 -40 85 l-35 0 3 43 3 42 53
3 52 3 0 35 c0 18 -4 34 -10 34 -5 0 -10 8 -10 18 -1 15 -2 15 -13 1 -7 -9
-18 -14 -24 -12 -7 3 -13 0 -13 -5 0 -7 -11 -7 -32 -1 -17 5 -34 7 -36 4 -3
-3 -11 0 -19 6 -10 9 -13 7 -14 -7 -1 -14 -3 -12 -8 6 -5 17 -9 21 -15 12z"/>
<path d="M2801 1436 c-1 -14 -6 -17 -26 -12 -14 4 -34 2 -45 -4 -16 -9 -20 -8
-21 7 0 15 -2 14 -9 -3 -5 -12 -14 -25 -20 -29 -9 -6 -9 -2 -1 13 17 32 13 37
-10 11 l-20 -24 12 25 c11 24 11 24 -7 7 -17 -16 -19 -36 -19 -227 0 -256 -6
-245 126 -245 115 0 129 12 129 111 0 70 1 69 -67 77 l-43 5 0 -39 c0 -33 -3
-39 -20 -39 -20 0 -20 5 -18 137 3 122 5 138 21 141 14 3 17 -4 17 -36 0 -46
4 -48 66 -43 l46 3 -6 57 c-8 79 -11 90 -25 104 -10 9 -11 8 -6 -5 4 -11 2
-18 -4 -18 -6 0 -11 7 -11 16 0 8 -5 12 -10 9 -6 -4 -8 -11 -5 -16 4 -5 2 -9
-4 -9 -5 0 -12 10 -14 23 -3 17 -5 17 -6 3z"/>
<path d="M1380 1420 c-5 -9 -9 -108 -10 -221 -1 -253 -6 -244 132 -244 77 0
92 3 104 20 11 15 14 64 14 228 0 118 -4 206 -9 203 -5 -3 -8 2 -7 12 1 11 -4
15 -14 12 -8 -2 -39 -3 -68 -2 -51 2 -89 -9 -104 -32 -5 -7 -8 -7 -8 3 0 7 -6
11 -14 8 -10 -4 -13 -1 -9 9 4 11 9 12 19 3 11 -9 14 -9 14 0 0 7 5 9 13 5 6
-4 9 -3 4 1 -13 15 -48 12 -57 -5z m140 -215 l0 -135 -25 0 -25 0 0 135 0 135
25 0 25 0 0 -135z"/>
<path d="M411 1314 c0 -11 3 -14 6 -6 3 7 2 16 -1 19 -3 4 -6 -2 -5 -13z"/>
<path d="M3486 1283 c-4 -5 -120 -10 -258 -13 -220 -4 -252 -7 -261 -22 -8
-12 -7 -21 2 -32 12 -14 45 -16 240 -16 124 0 231 4 236 8 6 4 21 24 33 45 21
36 23 45 8 30z"/>
<path d="M530 1264 c0 -3 7 -12 15 -21 8 -8 13 -19 10 -24 -11 -16 40 -20 249
-17 182 3 210 5 219 20 8 12 7 21 -2 32 -12 14 -47 16 -252 16 -132 0 -239 -3
-239 -6z"/>
<path d="M1569 843 c-5 -177 -6 -168 19 -171 20 -3 22 1 22 42 0 34 4 46 15
46 8 0 15 9 15 20 0 11 -7 20 -15 20 -8 0 -15 9 -15 20 0 15 7 20 25 20 20 0
25 5 25 25 0 23 -4 25 -45 25 l-45 0 -1 -47z"/>
<path d="M1747 883 c-4 -3 -7 -53 -7 -110 0 -96 1 -103 20 -103 15 0 20 7 20
24 0 14 5 28 10 31 6 4 10 -7 10 -24 0 -26 4 -31 25 -31 25 0 25 0 25 98 0 63
-4 102 -12 110 -13 13 -80 17 -91 5z m53 -78 c0 -19 -4 -35 -10 -35 -5 0 -10
16 -10 35 0 19 5 35 10 35 6 0 10 -16 10 -35z"/>
<path d="M1930 870 c0 -11 7 -23 15 -26 12 -5 15 -25 15 -90 0 -77 2 -84 20
-84 18 0 20 7 20 84 0 75 2 84 20 89 12 3 20 14 20 26 0 19 -6 21 -55 21 -49
0 -55 -2 -55 -20z"/>
<path d="M2120 779 l0 -110 43 3 c35 2 43 7 45 26 3 18 -1 22 -22 22 -19 0
-26 5 -26 20 0 13 7 20 20 20 13 0 20 7 20 20 0 13 -7 20 -20 20 -13 0 -20 7
-20 20 0 15 7 20 25 20 20 0 25 5 25 25 0 23 -4 25 -45 25 l-45 0 0 -111z"/>
<path d="M2290 779 c0 -109 0 -110 23 -107 18 2 23 10 25 42 2 21 10 46 19 54
14 14 14 17 -1 27 -23 17 -20 45 4 45 15 0 20 7 20 25 0 23 -4 25 -45 25 l-45
0 0 -111z"/>
</g>
</svg>
