<?xml version="1.0" standalone="no"?>
<!DOCTYPE svg PUBLIC "-//W3C//DTD SVG 20010904//EN"
 "http://www.w3.org/TR/2001/REC-SVG-20010904/DTD/svg10.dtd">
<svg version="1.0" xmlns="http://www.w3.org/2000/svg"
 width="400.000000pt" height="400.000000pt" viewBox="0 0 400.000000 400.000000"
 preserveAspectRatio="xMidYMid meet">

<g transform="translate(0.000000,400.000000) scale(0.100000,-0.100000)"
fill="#000000" stroke="none">
<path d="M1498 3584 c-17 -9 -39 -39 -58 -77 -18 -34 -47 -87 -67 -117 l-35
-55 6 47 c5 46 -8 108 -24 108 -16 0 -30 -29 -40 -80 -8 -41 -7 -58 3 -74 27
-42 28 -72 1 -142 -26 -70 -41 -97 -31 -56 4 18 3 21 -7 13 -7 -6 -16 -8 -19
-4 -4 3 -7 -2 -7 -12 0 -15 -3 -16 -12 -7 -16 16 -28 133 -13 129 5 -2 20 -23
33 -47 14 -28 22 -37 22 -24 0 29 -57 102 -80 104 -8 0 6 -130 15 -155 4 -11
18 -31 30 -45 20 -22 23 -39 27 -135 5 -99 4 -106 -7 -69 -19 60 -39 95 -78
132 l-34 33 5 -52 c6 -65 40 -126 89 -159 30 -21 45 -43 74 -110 20 -47 39
-101 43 -120 l6 -34 -30 29 c-16 15 -37 50 -45 76 -26 78 -153 178 -260 205
-28 7 -33 -7 -10 -26 8 -7 20 -30 26 -51 13 -43 125 -171 170 -194 15 -8 41
-15 56 -15 21 0 42 -13 76 -48 54 -55 65 -83 12 -32 -25 24 -38 31 -43 23 -5
-8 -13 -9 -22 -3 -13 8 -12 10 3 10 10 0 15 5 12 10 -8 13 -42 13 -50 0 -3 -5
8 -30 25 -55 30 -44 42 -50 97 -45 13 1 26 -7 32 -19 10 -17 7 -20 -20 -26
-17 -4 -40 -16 -50 -26 -17 -17 -20 -17 -25 -4 -5 11 -15 14 -33 11 -14 -3
-51 -10 -82 -16 l-56 -11 8 -43 c22 -118 92 -269 173 -374 118 -153 293 -269
485 -319 133 -35 306 -36 436 -4 271 69 480 240 599 491 69 147 94 263 59 274
-16 4 -131 26 -140 26 -2 0 -3 -8 -3 -18 0 -26 -11 -34 -24 -17 -6 8 -29 21
-51 29 l-40 15 57 0 c50 1 59 4 82 32 14 17 26 40 26 51 0 17 -4 19 -27 13
-16 -3 -45 -20 -66 -37 -77 -61 -53 1 31 80 31 28 63 52 71 52 78 1 211 135
211 211 0 16 -5 17 -32 12 -72 -14 -182 -101 -210 -165 -20 -47 -70 -105 -54
-64 3 11 16 57 28 103 19 78 22 83 47 83 27 0 68 36 104 90 19 27 24 135 7
145 -6 3 -10 -4 -10 -16 0 -13 -17 -37 -40 -59 -22 -20 -46 -54 -54 -76 -14
-38 -14 -36 -9 51 6 110 7 113 36 124 23 9 77 90 77 115 0 6 -14 -12 -30 -41
-34 -59 -41 -65 -56 -49 -11 12 8 91 29 124 12 18 35 15 40 -5 3 -10 5 -3 6
15 0 17 -1 32 -4 32 -15 0 -65 -46 -65 -60 0 -8 -6 -25 -14 -36 -8 -11 -16
-31 -18 -44 -2 -15 -12 13 -28 73 l-24 97 27 26 c24 22 26 30 20 67 -11 70
-19 92 -34 92 -20 0 -43 -54 -41 -97 0 -21 -2 -38 -6 -38 -18 0 -82 101 -82
129 0 16 -6 36 -14 44 -18 17 -134 62 -142 54 -3 -3 3 -18 14 -34 10 -15 26
-40 35 -55 11 -18 29 -29 52 -34 29 -5 47 -20 89 -73 29 -36 56 -72 60 -78 14
-24 -14 -13 -46 17 -38 37 -62 40 -56 6 5 -23 4 -23 -66 -18 -39 2 -73 6 -75
8 -2 2 0 16 4 31 4 15 10 22 12 16 7 -20 23 -15 23 7 0 40 -61 52 -97 18 -13
-12 -23 -17 -23 -10 0 17 -32 20 -62 5 -37 -18 -38 -46 -2 -37 20 5 25 3 22
-7 -6 -18 -47 -24 -61 -10 -6 6 -27 11 -47 11 -28 0 -44 8 -72 38 -50 51 -62
85 -40 111 9 10 27 22 40 26 29 8 41 -19 18 -44 -15 -17 -16 -19 -1 -25 20 -7
50 8 59 30 33 86 -65 147 -152 94 l-34 -21 7 33 7 33 -31 -29 -31 -30 -31 30
-32 29 7 -28 7 -28 -30 16 c-73 37 -151 4 -151 -65 0 -31 5 -43 26 -56 35 -23
56 -4 29 26 -14 16 -16 23 -7 32 9 9 20 8 47 -5 44 -21 46 -49 5 -105 -34 -47
-57 -62 -97 -62 -16 0 -34 -5 -40 -11 -14 -14 -55 -8 -61 10 -3 10 2 12 22 7
30 -7 34 4 8 27 -21 19 -67 23 -77 6 -5 -6 -13 -3 -22 10 -18 26 -54 27 -84 2
-20 -16 -22 -22 -11 -33 11 -11 14 -11 21 0 6 10 10 8 14 -10 4 -12 7 -26 7
-30 0 -5 -27 -8 -60 -8 -93 0 -140 -32 -140 -95 0 -54 36 -94 85 -95 54 0 75
37 24 42 -42 4 -60 31 -37 55 26 25 65 3 88 -50 28 -64 50 -155 50 -209 0 -37
4 -50 20 -58 20 -11 20 -8 20 190 l0 200 405 0 405 0 2 -200 c3 -166 5 -198
17 -191 8 5 16 38 21 83 9 98 45 202 77 228 32 25 49 25 63 1 13 -25 -11 -51
-45 -51 -32 0 -40 -16 -16 -29 36 -20 78 -13 100 15 12 15 21 35 21 44 0 49
72 46 90 -3 15 -45 31 -214 24 -254 -9 -49 -20 -40 -23 19 -1 28 -7 60 -12 70
-11 21 -79 69 -89 63 -21 -13 43 -168 76 -186 33 -17 35 -32 17 -109 -19 -79
-38 -94 -30 -24 3 29 0 56 -9 73 -7 14 -15 34 -18 43 -3 9 -19 24 -35 33 l-31
16 0 -46 c0 -51 28 -114 58 -132 30 -18 37 -85 14 -136 -21 -47 -52 -80 -52
-55 0 8 5 29 11 46 9 25 7 39 -9 75 -20 45 -54 87 -71 87 -13 0 -7 -141 6
-166 7 -11 19 -26 27 -34 9 -7 16 -20 16 -29 -1 -21 -99 -106 -110 -95 -16 18
-41 109 -47 174 -6 67 -16 90 -39 90 -11 0 -14 -21 -14 -93 0 -100 -16 -164
-56 -229 -55 -87 -159 -160 -256 -179 -32 -6 -63 -18 -69 -26 -10 -11 -14 -11
-28 1 -9 8 -41 19 -71 25 -110 23 -217 107 -273 216 -28 54 -31 70 -35 173 -3
78 -8 112 -16 112 -23 0 -36 -24 -36 -65 -1 -47 -14 -113 -37 -172 l-15 -42
-59 51 c-60 52 -72 80 -42 97 14 7 18 26 21 84 2 41 -1 83 -6 94 -9 16 -13 13
-31 -27 -13 -27 -21 -66 -21 -100 0 -65 -12 -58 -33 20 -8 30 -18 65 -22 77
-6 17 -1 24 22 36 22 12 33 29 46 70 19 61 20 76 8 96 -13 21 -80 -56 -81 -94
-1 -16 -5 -39 -10 -50 -7 -18 -9 -18 -20 10 -16 41 -31 125 -24 136 3 5 11 9
18 9 17 0 56 43 55 61 0 8 -5 3 -11 -11 -9 -20 -12 -22 -15 -8 -2 9 1 27 7 38
6 12 9 24 6 27 -3 3 -9 -5 -14 -18 -5 -13 -12 -31 -15 -39 -3 -9 -6 -6 -6 9
-1 14 11 42 25 63 28 39 50 51 41 21 -3 -10 -9 -29 -12 -43 -6 -23 -6 -23 9 4
20 35 21 76 2 76 -24 0 -80 -80 -87 -124 -5 -35 -7 -30 -8 31 -1 53 5 89 23
138 28 78 40 93 117 142 54 35 91 84 76 100 -8 7 -66 -16 -89 -35 -23 -19 -23
-10 2 37 18 37 63 81 81 81 20 0 89 57 100 83 10 24 10 30 -2 38 -19 12 -39
10 -71 -7z m72 -16 c0 -13 -57 -66 -84 -79 -18 -9 -17 -7 4 13 14 13 34 35 45
48 l20 24 -30 -19 c-16 -10 -38 -29 -49 -42 -10 -13 -20 -22 -23 -19 -9 9 29
62 55 77 28 16 62 14 62 -3z m990 -59 c0 -6 -7 -9 -15 -5 -8 3 -15 1 -15 -4 0
-6 -4 -10 -10 -10 -22 0 -8 26 15 28 14 1 25 -3 25 -9z m50 -35 c0 -8 -3 -14
-8 -14 -11 0 -32 37 -25 44 9 8 33 -14 33 -30z m-34 -8 c10 -8 16 -17 13 -20
-9 -9 -59 11 -59 24 0 14 23 12 46 -4z m-1255 -30 c-7 -8 -13 -28 -13 -45 -1
-17 -5 -31 -11 -31 -5 0 -6 19 -2 48 8 56 14 67 28 53 7 -7 6 -15 -2 -25z
m1443 -8 c11 -42 6 -99 -9 -115 -21 -20 -30 -10 -15 17 6 11 9 33 7 48 -4 24
-4 23 -6 -6 0 -21 -5 -31 -12 -26 -11 6 -6 75 7 96 9 15 22 8 28 -14z m-694
-100 c0 -5 -27 -8 -60 -8 l-60 0 31 62 31 62 29 -54 c15 -30 28 -58 29 -62z
m-743 40 c-3 -8 -6 -5 -6 6 -1 11 2 17 5 13 3 -3 4 -12 1 -19z m114 -16 c-8
-3 -26 -16 -39 -29 -29 -29 -37 -27 -14 3 20 24 55 45 62 37 3 -3 -1 -8 -9
-11z m1206 -53 c3 -11 17 -25 31 -30 14 -5 22 -12 18 -16 -3 -3 0 -13 6 -21
10 -12 9 -14 -7 -11 -17 4 -74 73 -75 92 0 17 22 5 27 -14z m67 -290 c14 -17
26 -38 26 -47 0 -13 -5 -11 -21 8 -20 25 -20 25 0 -17 24 -47 25 -53 12 -53
-14 0 -49 65 -57 105 -8 44 6 45 40 4z m-1508 -71 c20 -38 18 -54 -3 -37 -15
13 -15 12 -5 -8 16 -30 15 -38 -4 -22 -9 7 -13 21 -10 33 6 25 -2 40 -26 49
-11 4 -18 17 -18 33 l0 27 26 -24 c14 -13 32 -36 40 -51z m1684 24 c0 -5 -9
-17 -20 -27 -10 -9 -24 -32 -30 -50 -6 -18 -17 -36 -25 -39 -30 -11 -8 52 32
94 28 29 43 37 43 22z m10 -36 c0 -19 -61 -98 -80 -104 -10 -3 -7 4 8 20 12
13 22 31 22 39 0 18 28 59 41 59 5 0 9 -6 9 -14z m-1500 -44 c0 -20 -34 -108
-46 -121 -26 -28 -26 -1 0 44 15 25 22 45 17 45 -5 0 -13 -9 -16 -20 -3 -11
-11 -20 -16 -20 -16 0 -10 17 17 49 25 30 44 40 44 23z m1286 -54 c18 -36 22
-54 15 -61 -6 -6 -11 -7 -11 -1 0 5 -4 3 -9 -5 -7 -11 -13 -5 -26 25 -10 21
-19 53 -21 71 -5 47 21 32 52 -29z m-1550 -26 c-4 -3 -14 2 -24 12 -16 18 -16
18 6 6 13 -6 21 -14 18 -18z m1784 -32 c0 -5 -9 -10 -21 -10 -11 0 -17 5 -14
10 3 6 13 10 21 10 8 0 14 -4 14 -10z m-1702 -23 c25 -26 55 -105 48 -124 -16
-41 -130 24 -138 77 -4 26 -2 29 15 24 16 -5 18 -2 13 14 -6 17 -3 19 15 15
15 -4 20 -3 15 5 -13 21 10 13 32 -11z m1645 -23 c-3 -9 0 -12 9 -9 25 10 14
-37 -13 -57 -13 -10 -41 -21 -62 -25 l-38 -6 18 39 c24 55 51 83 73 77 11 -3
16 -11 13 -19z m-242 -45 c11 -22 19 -53 17 -67 -3 -25 -4 -25 -22 16 -11 23
-23 42 -28 42 -4 0 -8 14 -8 31 0 38 14 30 41 -22z m-1191 -56 c0 -31 -15 -61
-25 -51 -7 7 13 78 21 78 2 0 4 -12 4 -27z m1175 -3 c17 -34 19 -50 5 -50 -10
0 -40 52 -40 70 0 20 20 9 35 -20z m-1284 -126 l24 -26 -24 4 c-28 4 -64 48
-39 48 8 0 25 -12 39 -26z m1459 7 c0 -14 -48 -61 -62 -61 -9 1 -7 5 5 14 22
17 22 26 0 26 -15 0 -14 2 3 15 21 16 54 20 54 6z m-1322 -74 c42 -42 42 -44
24 -60 -18 -17 -20 -17 -35 6 -22 33 -47 97 -39 97 4 -1 26 -20 50 -43z m1138
-26 c-28 -54 -40 -62 -50 -34 -5 11 5 29 31 55 20 20 38 36 41 34 2 -2 -8 -27
-22 -55z m272 -18 c20 -5 22 -9 16 -42 -25 -136 -103 -299 -198 -411 -115
-138 -277 -238 -462 -286 -89 -23 -112 -25 -234 -21 -97 4 -156 11 -210 27
-289 83 -520 302 -608 580 -11 36 -23 79 -27 97 -6 31 -6 31 45 42 83 18 88
16 100 -31 66 -263 260 -469 514 -547 115 -35 295 -36 411 -3 260 75 462 284
522 541 l18 73 45 -7 c25 -4 55 -9 68 -12z m-1436 -34 c17 -9 18 -13 7 -20
-32 -20 -80 -4 -64 21 8 13 31 13 57 -1z m1223 -9 c0 -18 -38 -25 -62 -11 -16
9 -16 11 7 20 33 13 55 9 55 -9z m-1005 -25 c0 -25 -14 -34 -24 -16 -8 12 3
41 15 41 5 0 9 -11 9 -25z m753 -12 c-3 -7 -9 -13 -14 -13 -11 0 -12 34 -2 43
9 10 22 -13 16 -30z m-705 -105 c161 -154 287 -273 291 -276 6 -3 -78 -89
-111 -113 l-27 -20 -71 25 c-102 35 -204 99 -280 176 -62 61 -139 175 -154
226 -6 21 -5 21 31 9 29 -10 40 -20 48 -44 5 -17 12 -31 16 -31 4 0 16 17 26
37 11 20 24 38 29 40 5 1 28 -27 50 -62 23 -36 38 -65 34 -65 -4 0 -13 7 -20
15 -13 16 -77 31 -87 21 -4 -4 13 -26 37 -51 46 -47 91 -65 115 -45 11 9 28
-2 85 -54 40 -37 76 -63 82 -60 6 4 -4 18 -23 32 -19 14 -58 49 -87 78 -52 51
-54 54 -47 93 5 33 2 49 -21 91 -15 27 -30 50 -34 50 -4 0 -10 -15 -14 -32 -5
-24 -1 -40 14 -60 20 -28 26 -48 13 -48 -10 1 -73 93 -73 106 1 9 58 51 73 53
4 1 52 -41 105 -91z m777 70 c19 -13 35 -25 35 -29 0 -3 -16 -20 -35 -39 l-35
-34 6 32 c4 17 3 39 0 48 -6 15 -9 15 -30 -5 -13 -13 -26 -35 -29 -49 -4 -15
-10 -51 -16 -80 -8 -44 -18 -60 -53 -93 -24 -21 -55 -47 -70 -56 -25 -15 -39
-43 -22 -43 3 0 37 29 74 63 61 56 74 64 112 65 51 2 123 47 123 77 0 17 -6
19 -44 16 -50 -3 -50 -2 8 61 24 27 25 27 44 10 11 -9 23 -27 28 -39 12 -32
23 -29 34 8 8 24 19 34 50 45 22 8 41 14 43 14 2 0 -13 -31 -33 -69 -94 -178
-254 -310 -446 -367 l-52 -16 -64 65 -65 64 199 186 c109 103 199 187 201 187
1 0 18 -10 37 -22z m-45 -58 c0 -30 -27 -90 -41 -90 -6 0 -9 6 -6 14 3 8 11
33 17 55 11 43 30 56 30 21z m-816 -39 c-7 -7 -34 28 -34 43 1 6 10 0 21 -13
11 -13 17 -27 13 -30z m265 -57 c57 -18 60 -18 54 6 -6 24 18 27 37 5 11 -13
10 -22 -3 -50 l-17 -35 64 0 64 0 -16 41 c-13 35 -14 42 -1 50 25 16 42 11 36
-12 -5 -18 -2 -20 26 -13 18 3 47 12 65 20 17 7 32 10 31 6 -1 -11 -196 -187
-206 -187 -5 0 -56 44 -114 99 -57 54 -95 95 -84 91 11 -4 40 -14 64 -21z
m-343 6 c8 0 14 -4 14 -10 0 -5 -8 -7 -17 -4 -10 4 -4 -3 13 -14 17 -11 40
-23 52 -26 12 -4 20 -11 17 -15 -9 -15 -52 0 -89 31 -37 30 -48 55 -20 44 9
-3 22 -6 30 -6z m974 0 c0 -5 -5 -10 -11 -10 -5 0 -8 -4 -5 -9 3 -5 -1 -14 -9
-21 -19 -16 -95 -31 -95 -19 0 5 15 9 33 9 18 0 42 7 53 16 19 15 19 16 -1 8
-11 -4 -33 -9 -50 -12 -30 -5 -30 -5 -11 16 23 27 96 43 96 22z m-431 -283
l52 -54 -68 -5 c-37 -3 -90 -3 -117 1 l-48 6 55 53 c31 28 60 52 64 52 5 0 32
-24 62 -53z"/>
<path d="M1203 2330 c-13 -5 -23 -16 -23 -24 0 -18 27 -46 44 -46 23 0 48 37
41 59 -7 22 -26 25 -62 11z m45 -27 c-4 -22 -38 -30 -49 -12 -9 15 7 29 34 29
12 0 17 -6 15 -17z"/>
<path d="M2772 2328 c-15 -15 -15 -45 0 -54 6 -4 19 2 29 14 9 12 20 22 23 22
13 0 5 -23 -11 -36 -17 -12 -17 -13 -1 -14 10 0 22 10 29 21 9 17 8 25 -6 38
-15 15 -18 14 -36 -8 -11 -13 -22 -21 -26 -18 -3 4 0 13 7 22 16 19 9 30 -8
13z"/>
<path d="M1241 2234 c-19 -8 -32 -17 -29 -20 7 -6 78 22 78 30 0 9 -12 7 -49
-10z"/>
<path d="M2740 2244 c0 -5 63 -34 75 -34 18 0 0 18 -28 28 -37 13 -47 15 -47
6z"/>
<path d="M2711 2180 c-6 -18 -6 -30 0 -30 5 0 9 5 9 10 0 6 14 4 35 -4 19 -8
35 -11 35 -7 0 5 -14 14 -31 21 -18 8 -28 18 -25 26 3 8 1 14 -3 14 -5 0 -14
-13 -20 -30z"/>
<path d="M1258 2188 c-32 -11 -35 -25 -13 -54 15 -18 15 -18 10 6 -5 22 -1 28
27 42 36 18 19 22 -24 6z"/>
<path d="M1307 2110 c-44 -8 -60 -20 -28 -20 20 0 23 -4 18 -25 -6 -33 9 -28
40 12 28 36 22 42 -30 33z m23 -20 c0 -5 -4 -10 -10 -10 -5 0 -10 5 -10 10 0
6 5 10 10 10 6 0 10 -4 10 -10z"/>
<path d="M2670 2103 c1 -5 15 -24 32 -43 17 -19 28 -27 25 -17 -9 24 2 47 19
40 8 -3 14 -1 14 5 0 5 -14 12 -31 16 -42 8 -59 8 -59 -1z"/>
<path d="M1375 2050 c5 -9 -2 -21 -21 -37 -20 -16 -24 -23 -13 -23 9 0 22 7
29 15 8 10 20 13 34 9 19 -6 19 -5 5 17 -17 24 -48 42 -34 19z"/>
<path d="M2626 2038 c-19 -26 -21 -47 -4 -30 8 8 18 6 40 -9 15 -11 28 -16 28
-11 0 5 -12 17 -26 27 -20 13 -23 19 -13 31 7 9 8 14 1 14 -6 0 -18 -10 -26
-22z"/>
<path d="M1405 1966 c-30 -24 -30 -24 -11 -45 11 -12 24 -21 29 -21 6 0 2 9
-8 20 -24 26 -11 39 15 15 21 -19 29 -8 8 13 -20 20 1 26 22 7 11 -10 20 -14
20 -8 0 9 -32 43 -41 43 -2 0 -17 -11 -34 -24z"/>
<path d="M2580 1982 c0 -13 44 -52 59 -52 7 0 10 4 6 10 -10 16 -65 52 -65 42z"/>
<path d="M2529 1931 l-24 -19 29 -31 c29 -30 51 -36 27 -7 -16 19 1 30 32 20
20 -6 19 -4 -7 25 -17 17 -31 31 -32 31 -1 0 -12 -9 -25 -19z m31 -10 c0 -12
-20 -25 -27 -18 -7 7 6 27 18 27 5 0 9 -4 9 -9z"/>
<path d="M1473 1900 c-28 -35 -30 -49 -3 -25 20 18 20 17 20 -13 0 -40 10 -40
38 -2 24 32 20 40 -8 15 -14 -13 -16 -11 -12 20 5 42 -5 44 -35 5z"/>
<path d="M2458 1876 c-23 -17 -22 -25 5 -58 21 -26 24 -27 45 -12 12 8 22 20
22 26 0 6 -8 4 -18 -5 -23 -21 -32 -21 -32 -3 0 8 7 17 16 20 9 4 14 9 11 13
-4 3 -13 0 -22 -7 -23 -19 -31 -3 -10 20 20 22 9 26 -17 6z"/>
<path d="M1569 1861 c12 -8 12 -13 -3 -36 -10 -15 -15 -29 -13 -32 3 -2 13 7
23 22 9 14 23 24 30 21 8 -3 14 -3 14 1 0 10 -34 32 -50 33 -13 0 -13 -2 -1
-9z"/>
<path d="M2407 1808 c6 -33 6 -33 -15 -14 -11 10 -26 16 -31 15 -6 -2 5 -17
25 -32 19 -16 38 -27 41 -24 8 9 -8 87 -18 87 -5 0 -6 -15 -2 -32z"/>
<path d="M1627 1795 c-15 -31 -15 -36 -1 -50 9 -8 22 -15 29 -15 15 0 50 58
41 67 -3 3 -11 -6 -17 -21 -7 -14 -20 -26 -31 -26 -22 0 -23 18 -3 47 8 12 11
24 7 27 -5 3 -16 -10 -25 -29z"/>
<path d="M1716 1756 c-3 -13 -9 -32 -12 -43 -5 -17 -5 -17 10 1 17 21 51 14
42 -9 -3 -8 -1 -15 4 -15 6 0 10 8 10 18 0 10 6 24 13 31 10 10 8 15 -7 27
-29 21 -53 17 -60 -10z m54 -7 c0 -11 -27 -12 -34 0 -3 4 -3 11 0 14 8 8 34
-3 34 -14z"/>
<path d="M2270 1723 l0 -48 20 25 c17 21 21 23 29 10 6 -8 13 -11 17 -7 8 8
-44 67 -58 67 -4 0 -8 -21 -8 -47z"/>
<path d="M2214 1730 c3 -14 6 -33 6 -42 0 -10 5 -18 11 -18 13 0 2 60 -13 75
-7 7 -9 2 -4 -15z"/>
<path d="M1850 1721 c0 -11 9 -22 20 -26 11 -3 20 -11 20 -16 0 -13 -24 -11
-38 3 -8 8 -12 8 -12 1 0 -20 31 -38 48 -27 26 17 25 32 -4 47 -18 9 -23 17
-15 21 7 4 19 2 28 -6 14 -11 16 -11 11 2 -2 8 -17 16 -31 18 -21 3 -27 -1
-27 -17z"/>
<path d="M2116 1731 c-3 -5 3 -11 14 -14 14 -3 20 -14 20 -31 0 -14 4 -26 10
-26 5 0 7 13 3 31 -4 21 -1 34 8 40 10 6 4 9 -18 9 -17 0 -34 -4 -37 -9z"/>
<path d="M1941 1688 c1 -24 3 -35 6 -25 3 10 14 17 28 17 13 0 27 5 30 10 10
16 -15 40 -41 40 -22 0 -24 -4 -23 -42z m49 11 c0 -5 -7 -9 -15 -9 -8 0 -15 7
-15 15 0 9 6 12 15 9 8 -4 15 -10 15 -15z"/>
<path d="M2041 1689 c-12 -40 -8 -69 5 -35 7 19 30 21 37 4 2 -7 7 -10 11 -7
8 7 -21 79 -33 79 -4 0 -13 -18 -20 -41z"/>
<path d="M1630 3029 c0 -175 -3 -220 -13 -216 -9 3 -12 -7 -12 -33 0 -26 3
-36 12 -33 10 4 13 -19 13 -98 1 -167 29 -248 115 -335 60 -60 108 -87 196
-109 80 -20 73 -20 144 0 133 36 223 107 273 213 24 51 27 70 30 195 4 124 6
138 21 134 13 -3 17 4 17 35 1 31 -1 36 -12 27 -23 -19 -25 5 -22 229 l3 212
-382 0 -383 0 0 -221z m741 -52 c2 -490 2 -494 -56 -594 -44 -75 -145 -142
-240 -159 -22 -3 -45 -11 -52 -16 -7 -5 -13 -5 -17 0 -3 5 -26 13 -50 16 -111
17 -223 105 -274 214 l-27 57 -3 358 c-2 197 -2 364 1 370 3 9 95 11 361 9
l356 -2 1 -253z"/>
<path d="M2279 3165 c-2 -16 -9 -30 -16 -30 -6 0 -15 -3 -19 -7 -4 -5 2 -8 14
-8 18 0 22 -6 22 -35 0 -19 4 -35 8 -35 4 0 6 16 4 35 -4 30 -1 35 17 35 12 0
21 5 21 10 0 6 -3 9 -7 9 -23 -4 -32 4 -35 29 l-4 27 -5 -30z"/>
<path d="M2114 3048 l-29 -32 35 22 c19 11 36 26 38 31 7 21 -15 11 -44 -21z"/>
<path d="M2150 3000 c-19 -17 -28 -30 -21 -30 16 0 71 32 71 42 0 19 -20 14
-50 -12z"/>
<path d="M2192 2950 c-31 -41 -27 -45 13 -14 19 14 32 30 29 35 -9 15 -19 10
-42 -21z"/>
<path d="M2027 2908 c7 -62 9 -66 26 -48 9 10 9 11 0 6 -8 -5 -13 -1 -13 10 0
16 1 16 20 -1 26 -24 25 -34 -5 -45 -18 -7 -25 -17 -25 -35 0 -14 3 -25 8 -25
28 1 51 15 54 34 2 16 11 5 37 -44 49 -96 74 -135 78 -123 3 7 -6 31 -18 55
-24 48 -14 42 24 -15 15 -24 28 -34 32 -27 4 6 0 22 -9 35 -9 13 -16 27 -16
29 0 3 33 7 73 9 l72 3 -80 2 -80 2 -48 70 c-26 39 -52 70 -57 70 -4 0 -20 20
-34 45 -15 25 -31 45 -36 45 -5 0 -6 -23 -3 -52z m53 -102 c0 -8 -7 -17 -16
-20 -23 -9 -24 -8 -24 14 0 13 7 20 20 20 11 0 20 -6 20 -14z"/>
<path d="M2240 2904 c-7 -19 -10 -38 -7 -41 6 -5 37 50 37 67 0 24 -19 7 -30
-26z"/>
<path d="M1988 2907 c-19 -28 -24 -57 -9 -57 5 0 7 8 4 19 -3 10 0 22 6 25 7
4 11 -1 11 -13 0 -34 -11 -51 -34 -51 -18 0 -54 -36 -44 -45 6 -6 82 -24 85
-21 2 2 3 41 1 87 -3 83 -3 83 -20 56z m12 -111 c0 -19 -4 -22 -25 -18 -45 8
-45 42 1 42 19 0 24 -5 24 -24z"/>
<path d="M2053 2760 c-23 -9 -28 -25 -17 -54 8 -21 22 -20 62 4 28 17 31 23
22 40 -11 21 -31 24 -67 10z m61 -15 c3 -10 -5 -20 -24 -30 -38 -20 -40 -19
-40 9 0 32 53 50 64 21z"/>
<path d="M1887 2731 c-23 -39 -22 -41 13 -41 24 0 31 5 36 26 4 17 2 29 -7 35
-21 13 -23 12 -42 -20z m40 -15 c-4 -9 -16 -16 -27 -16 -21 0 -20 8 3 38 13
17 32 -1 24 -22z"/>
<path d="M1966 2728 c-9 -36 -8 -38 24 -38 17 0 30 4 30 9 0 4 -11 6 -25 3
-27 -5 -28 -3 -19 22 3 8 13 12 22 9 15 -4 15 -3 2 6 -22 15 -27 14 -34 -11z"/>
<path d="M1713 2723 c26 -2 68 -2 95 0 26 2 4 3 -48 3 -52 0 -74 -1 -47 -3z"/>
<path d="M1808 2703 c7 -3 16 -2 19 1 4 3 -2 6 -13 5 -11 0 -14 -3 -6 -6z"/>
<path d="M2267 2699 c7 -7 15 -10 18 -7 3 3 -2 9 -12 12 -14 6 -15 5 -6 -5z"/>
<path d="M2310 2700 c0 -5 12 -10 28 -9 24 0 25 1 7 9 -27 12 -35 12 -35 0z"/>
<path d="M1765 2670 c-3 -5 1 -10 9 -10 8 0 18 5 21 10 3 6 -1 10 -9 10 -8 0
-18 -4 -21 -10z"/>
<path d="M2062 2664 c-22 -15 -31 -64 -12 -64 9 0 101 22 108 26 1 1 -2 13 -7
28 -12 31 -53 36 -89 10z m76 -15 c2 -11 -10 -19 -36 -27 -22 -7 -42 -12 -46
-12 -14 0 -5 40 12 49 24 15 66 9 70 -10z"/>
<path d="M2275 2661 c3 -5 -10 -21 -28 -35 -26 -20 -45 -26 -86 -26 -37 0 -53
-4 -57 -15 -5 -12 -28 -15 -115 -15 -88 0 -111 3 -115 15 -6 14 -73 22 -85 10
-3 -2 -3 -20 -1 -40 3 -29 8 -35 27 -35 13 0 34 -12 48 -29 23 -28 28 -29 113
-31 141 -3 141 -3 160 29 10 17 27 32 38 35 12 3 30 21 40 41 11 19 22 35 26
35 4 0 19 11 34 25 25 23 28 45 5 45 -6 0 -8 -4 -4 -9z"/>
<path d="M1836 2644 c-9 -23 -9 -22 35 -35 34 -11 42 -10 50 2 17 26 10 49
-13 48 -19 -1 -19 -2 -5 -6 11 -3 16 -10 13 -20 -3 -8 -6 -17 -6 -19 0 -7 -17
-5 -45 6 -23 9 -25 13 -15 25 7 9 8 15 2 15 -5 0 -13 -7 -16 -16z"/>
<path d="M1957 2654 c-4 -4 -7 -20 -7 -35 0 -27 15 -39 51 -39 17 0 20 6 17
38 -3 31 -7 37 -28 40 -14 2 -29 0 -33 -4z m51 -37 c3 -27 -4 -32 -32 -21 -16
6 -22 35 -9 48 15 14 38 0 41 -27z"/>
<path d="M1685 2640 c-7 -12 2 -12 30 0 19 8 19 9 -2 9 -12 1 -25 -3 -28 -9z"/>
<path d="M2320 2640 c0 -5 9 -10 20 -10 11 0 20 5 20 10 0 6 -9 10 -20 10 -11
0 -20 -4 -20 -10z"/>
<path d="M1758 2631 c-21 -5 -25 -9 -18 -21 9 -13 10 -13 10 0 0 11 2 12 8 3
6 -9 11 -7 20 7 7 11 11 19 10 19 -2 -1 -15 -4 -30 -8z"/>
<path d="M1700 2580 c0 -5 12 -10 28 -9 24 0 25 1 7 9 -27 12 -35 12 -35 0z"/>
<path d="M2262 2583 c-22 -4 -23 -5 -5 -18 24 -19 30 -18 36 5 3 11 2 19 -1
19 -4 -1 -17 -4 -30 -6z"/>
<path d="M1718 2553 c7 -3 16 -2 19 1 4 3 -2 6 -13 5 -11 0 -14 -3 -6 -6z"/>
<path d="M1718 2523 c7 -3 16 -2 19 1 4 3 -2 6 -13 5 -11 0 -14 -3 -6 -6z"/>
<path d="M2228 2513 c6 -2 18 -2 25 0 6 3 1 5 -13 5 -14 0 -19 -2 -12 -5z"/>
<path d="M1708 2503 c7 -3 16 -2 19 1 4 3 -2 6 -13 5 -11 0 -14 -3 -6 -6z"/>
<path d="M1727 2470 c5 -18 13 -20 72 -19 36 0 59 3 51 6 -8 3 -21 13 -28 22
-12 15 -14 14 -27 -3 -14 -19 -45 -16 -45 4 0 5 -6 10 -14 10 -9 0 -12 -7 -9
-20z"/>
<path d="M2193 2483 c9 -2 23 -2 30 0 6 3 -1 5 -18 5 -16 0 -22 -2 -12 -5z"/>
<path d="M2280 2486 c0 -9 39 -13 51 -5 10 6 4 9 -18 9 -18 0 -33 -2 -33 -4z"/>
<path d="M2210 2460 c-11 -7 -4 -10 25 -10 29 0 36 3 25 10 -8 5 -19 10 -25
10 -5 0 -17 -5 -25 -10z"/>
<path d="M1753 2433 c15 -2 37 -2 50 0 12 2 0 4 -28 4 -27 0 -38 -2 -22 -4z"/>
<path d="M1868 2433 c7 -3 16 -2 19 1 4 3 -2 6 -13 5 -11 0 -14 -3 -6 -6z"/>
<path d="M2008 2433 c12 -2 30 -2 40 0 9 3 -1 5 -23 4 -22 0 -30 -2 -17 -4z"/>
<path d="M2233 2433 c15 -2 39 -2 55 0 15 2 2 4 -28 4 -30 0 -43 -2 -27 -4z"/>
<path d="M1748 2413 c6 -2 18 -2 25 0 6 3 1 5 -13 5 -14 0 -19 -2 -12 -5z"/>
<path d="M1888 2413 c18 -2 45 -2 60 0 15 2 0 4 -33 4 -33 0 -45 -2 -27 -4z"/>
<path d="M2207 2413 c18 -2 50 -2 70 0 21 2 7 4 -32 4 -38 0 -55 -2 -38 -4z"/>
<path d="M1803 2393 c9 -2 23 -2 30 0 6 3 -1 5 -18 5 -16 0 -22 -2 -12 -5z"/>
<path d="M1993 2393 c15 -2 37 -2 50 0 12 2 0 4 -28 4 -27 0 -38 -2 -22 -4z"/>
<path d="M2173 2393 c20 -2 54 -2 75 0 20 2 3 4 -38 4 -41 0 -58 -2 -37 -4z"/>
<path d="M1864 2373 c11 -3 26 -11 34 -19 7 -8 32 -14 55 -13 l42 1 -42 10
c-24 5 -43 13 -43 19 0 5 -15 8 -32 8 -21 -1 -26 -3 -14 -6z"/>
<path d="M1963 2373 c15 -2 37 -2 50 0 12 2 0 4 -28 4 -27 0 -38 -2 -22 -4z"/>
<path d="M2100 2370 c0 -5 -16 -10 -36 -10 -23 0 -33 -4 -28 -11 6 -10 19 -9
112 5 7 1 18 8 24 14 9 9 2 12 -30 12 -23 0 -42 -4 -42 -10z"/>
<path d="M1795 2360 c-4 -6 6 -10 22 -10 22 0 25 2 13 10 -19 12 -27 12 -35 0z"/>
<path d="M2210 2360 c0 -5 4 -10 9 -10 6 0 13 5 16 10 3 6 -1 10 -9 10 -9 0
-16 -4 -16 -10z"/>
<path d="M2170 2320 c-12 -8 -10 -10 8 -10 13 0 20 4 17 10 -7 12 -6 12 -25 0z"/>
<path d="M1893 2313 c26 -2 67 -2 90 0 23 2 2 3 -48 3 -49 0 -68 -1 -42 -3z"/>
<path d="M2068 2313 c6 -2 18 -2 25 0 6 3 1 5 -13 5 -14 0 -19 -2 -12 -5z"/>
<path d="M2143 2293 c9 -2 23 -2 30 0 6 3 -1 5 -18 5 -16 0 -22 -2 -12 -5z"/>
<path d="M1964 2273 c7 -7 87 -5 95 3 2 2 -20 4 -49 4 -29 0 -50 -3 -46 -7z"/>
<path d="M2827 3113 c-4 -3 -7 -11 -7 -17 0 -6 5 -5 12 2 6 6 9 14 7 17 -3 3
-9 2 -12 -2z"/>
<path d="M1565 2862 c-18 -13 -55 -71 -55 -86 0 -8 6 -19 13 -23 8 -4 16 -16
20 -26 8 -22 31 -31 55 -22 15 6 15 8 2 18 -9 7 -16 32 -18 65 -3 43 0 52 14
52 13 0 14 3 4 15 -14 17 -20 18 -35 7z"/>
<path d="M2435 2859 c-4 -6 -2 -14 4 -18 14 -9 12 -103 -2 -112 -12 -9 0 -29
17 -29 16 0 66 63 66 82 0 8 -5 19 -11 25 -6 6 -17 22 -23 35 -13 26 -40 35
-51 17z"/>
<path d="M1270 1318 c0 -51 -4 -78 -12 -81 -7 -3 3 -5 22 -5 19 0 29 2 23 5
-8 3 -13 22 -13 46 l0 41 48 -47 c26 -26 51 -47 55 -47 4 0 7 31 7 69 0 46 4
71 13 74 6 3 -4 5 -23 5 -19 0 -29 -2 -22 -5 7 -3 12 -23 12 -49 l0 -45 -55
58 -54 58 -1 -77z"/>
<path d="M2073 1380 c-32 -13 -29 -50 7 -85 35 -33 36 -40 13 -49 -11 -5 -22
-1 -30 10 -15 20 -28 12 -20 -11 8 -18 58 -20 75 -3 20 20 13 51 -20 85 -27
28 -29 33 -15 39 10 3 24 1 32 -6 12 -10 15 -10 15 3 0 11 -23 30 -33 26 -1 0
-12 -4 -24 -9z"/>
<path d="M2515 1323 c-15 -37 -35 -74 -43 -80 -14 -11 -11 -13 14 -13 25 0 30
4 30 23 -1 17 5 22 24 22 18 0 26 -6 28 -22 3 -18 10 -23 35 -23 26 0 29 2 15
13 -8 6 -26 39 -39 72 -12 33 -26 64 -29 68 -4 4 -19 -23 -35 -60z m35 -13 c0
-5 -4 -10 -10 -10 -5 0 -10 5 -10 10 0 6 5 10 10 10 6 0 10 -4 10 -10z"/>
<path d="M1065 1369 c4 -6 9 -33 11 -61 4 -61 21 -81 66 -80 43 1 58 24 58 88
0 33 5 54 13 57 6 3 -4 5 -23 5 -19 0 -29 -2 -22 -5 19 -7 16 -107 -4 -124
-11 -9 -20 -10 -32 -2 -13 8 -17 25 -17 72 0 60 0 61 -28 61 -17 0 -26 -4 -22
-11z"/>
<path d="M1468 1373 c8 -3 12 -27 12 -68 0 -41 -4 -65 -12 -68 -7 -3 5 -6 27
-6 26 0 35 2 27 8 -10 6 -13 27 -10 75 l3 66 -30 -1 c-16 0 -24 -3 -17 -6z"/>
<path d="M1556 1372 c5 -4 23 -37 39 -74 15 -38 31 -68 34 -68 3 0 22 34 41
75 35 74 35 75 13 75 -14 0 -21 -5 -18 -12 3 -7 -4 -31 -13 -53 l-18 -40 -16
47 c-9 25 -14 49 -10 52 3 3 -10 6 -29 6 -19 0 -29 -4 -23 -8z"/>
<path d="M1738 1373 c8 -3 12 -27 12 -68 0 -41 -4 -65 -12 -68 -7 -3 10 -6 38
-6 37 -1 53 3 58 14 6 16 -9 21 -19 5 -10 -17 -35 2 -35 27 0 22 3 24 25 19
18 -5 25 -2 25 9 0 9 -9 15 -25 15 -18 0 -25 5 -25 19 0 26 17 36 35 21 12
-10 15 -9 15 4 0 13 -10 16 -52 15 -29 0 -47 -3 -40 -6z"/>
<path d="M1885 1305 l0 -75 30 0 c22 0 26 3 17 12 -14 14 -16 48 -3 48 5 0 19
-13 31 -30 15 -20 30 -30 48 -30 l26 0 -22 16 c-34 24 -44 49 -31 78 17 36 -3
56 -55 56 l-41 0 0 -75z m69 17 c-20 -31 -44 -3 -29 35 5 15 7 15 23 0 13 -14
14 -21 6 -35z"/>
<path d="M2185 1305 l0 -75 30 0 c22 0 26 3 17 12 -7 7 -12 35 -12 63 0 28 5
56 12 63 9 9 5 12 -17 12 l-30 0 0 -75z"/>
<path d="M2295 1305 l0 -75 53 0 c43 0 58 5 77 25 32 31 33 74 2 103 -18 17
-36 22 -78 22 l-54 0 0 -75z m100 40 c14 -13 25 -33 25 -45 0 -43 -70 -81 -84
-44 -8 21 -8 99 1 107 13 13 34 7 58 -18z"/>
<path d="M2655 1305 l0 -75 51 0 c67 0 104 27 104 76 0 53 -28 74 -97 74 l-58
0 0 -75z m100 40 c30 -30 32 -58 4 -86 -36 -36 -54 -22 -57 49 -3 71 10 81 53
37z"/>
<path d="M2858 1373 c8 -3 12 -27 12 -68 0 -41 -4 -65 -12 -68 -7 -3 11 -6 40
-6 40 -1 52 2 52 14 0 12 -4 13 -19 6 -23 -13 -31 -5 -31 27 0 19 4 23 20 19
13 -3 20 0 20 9 0 8 -9 14 -20 14 -15 0 -20 7 -20 25 0 16 6 25 15 25 8 0 15
-4 15 -10 0 -5 5 -10 10 -10 6 0 10 7 10 15 0 12 -12 15 -52 14 -29 0 -47 -3
-40 -6z"/>
<path d="M1895 1164 c-22 -20 -33 -33 -24 -31 10 3 35 11 58 18 35 10 39 14
30 30 -13 25 -18 24 -64 -17z"/>
<path d="M912 1097 c-113 -42 -147 -184 -63 -268 44 -44 104 -63 179 -57 58 5
72 17 72 60 l0 26 -29 -29 c-35 -35 -81 -38 -129 -9 -53 33 -74 75 -69 144 3
51 8 63 35 87 24 22 43 29 72 29 52 0 89 -18 96 -47 10 -38 24 -26 24 21 l0
43 -46 7 c-65 8 -103 7 -142 -7z"/>
<path d="M1257 1078 c-7 -18 -35 -88 -62 -155 -33 -83 -54 -124 -69 -131 -17
-9 -9 -11 39 -10 33 0 52 2 42 5 -19 5 -19 21 3 78 8 22 15 25 55 25 45 0 47
-1 66 -45 11 -25 17 -50 14 -55 -4 -6 18 -10 57 -9 47 0 57 3 41 9 -31 12 -44
37 -103 188 -28 72 -56 132 -61 132 -5 0 -15 -15 -22 -32z m23 -93 c25 -66 24
-75 -7 -75 -16 0 -32 2 -35 5 -5 5 23 95 30 95 1 0 7 -11 12 -25z"/>
<path d="M1415 1095 c-10 -35 -12 -55 -5 -55 4 0 11 7 14 16 4 11 18 14 53 12
l48 -3 3 -75 c5 -114 -6 -198 -26 -203 -9 -3 17 -5 58 -5 51 -1 68 2 54 8 -27
11 -34 46 -34 176 l0 104 45 0 c31 0 47 -5 51 -15 11 -27 25 -16 22 15 l-3 31
-139 2 c-86 1 -140 -2 -141 -8z"/>
<path d="M1827 1096 c-69 -25 -107 -80 -107 -155 0 -96 62 -162 158 -169 115
-8 198 74 189 186 -5 64 -28 99 -87 130 -50 25 -97 27 -153 8z m112 -31 c43
-22 64 -75 59 -153 -4 -56 -8 -68 -32 -88 -49 -43 -130 -23 -163 39 -20 39
-23 121 -5 163 22 51 85 69 141 39z"/>
<path d="M2668 1101 c-47 -16 -85 -49 -102 -91 -21 -54 -20 -95 5 -146 16 -34
32 -49 75 -70 46 -22 64 -26 119 -22 35 2 66 6 69 8 2 3 8 23 12 45 l7 40 -31
-32 c-35 -38 -73 -43 -128 -17 -48 23 -74 70 -74 133 0 64 20 104 60 121 56
23 150 -6 150 -47 0 -7 5 -13 10 -13 13 0 13 77 0 85 -17 11 -144 15 -172 6z"/>
<path d="M3004 1073 c-88 -222 -110 -268 -134 -280 -23 -11 -19 -13 40 -12 36
1 57 3 48 6 -22 5 -22 20 -3 67 14 34 18 36 60 36 42 0 46 -2 60 -36 8 -20 15
-45 15 -55 0 -17 8 -19 58 -18 31 1 49 3 39 6 -21 5 -47 57 -108 210 -24 62
-48 113 -52 113 -5 0 -15 -17 -23 -37z m37 -138 c3 -16 -2 -20 -29 -22 -22 -1
-32 3 -29 10 2 7 10 29 18 51 l14 38 11 -28 c7 -16 14 -38 15 -49z"/>
<path d="M2128 1090 c21 -9 22 -14 22 -149 0 -123 -2 -141 -17 -150 -13 -8 12
-10 92 -8 l110 2 3 35 3 35 -20 -25 c-14 -18 -28 -24 -54 -23 -20 1 -40 4 -46
8 -7 4 -11 55 -11 136 0 125 1 130 23 139 16 6 2 9 -53 9 -55 0 -69 -3 -52 -9z"/>
<path d="M2388 1090 c21 -9 22 -13 22 -150 0 -137 -1 -141 -22 -150 -17 -6 -3
-9 52 -9 55 0 69 3 53 9 -22 9 -23 14 -23 149 0 123 2 141 18 150 13 8 -1 10
-53 10 -52 0 -64 -3 -47 -9z"/>
<path d="M1851 699 c-6 -13 -32 -78 -59 -144 -36 -90 -54 -123 -73 -132 -22
-12 -18 -13 35 -13 50 0 57 2 44 12 -15 12 -15 16 -1 51 14 35 18 37 58 37 40
0 43 -2 58 -41 9 -23 14 -46 11 -50 -3 -5 43 -9 103 -8 59 0 101 3 93 6 -26
10 -30 25 -30 113 l0 85 110 -110 c61 -60 111 -106 111 -102 1 4 3 12 4 17 1
6 3 68 4 140 1 108 4 130 16 130 8 0 15 5 15 10 0 6 -22 10 -50 10 -27 0 -50
-4 -50 -10 0 -5 7 -10 15 -10 12 0 15 -15 16 -72 0 -40 2 -83 5 -95 2 -13 1
-23 -2 -23 -4 0 -52 47 -106 105 -55 58 -104 105 -109 105 -5 0 -9 -51 -9
-114 0 -149 -6 -176 -36 -176 -30 0 -41 18 -100 165 -26 66 -51 124 -55 129
-5 5 -13 -2 -18 -15z m32 -161 c-5 -9 -47 -11 -55 -2 -3 3 1 24 10 46 l16 41
17 -39 c9 -21 14 -42 12 -46z"/>
<path d="M810 701 c0 -6 7 -11 15 -11 23 0 22 -255 -1 -268 -11 -6 8 -11 62
-15 152 -12 218 25 239 134 9 51 -18 113 -63 141 -29 18 -54 22 -144 26 -76 3
-108 1 -108 -7z m198 -41 c55 -34 76 -108 48 -174 -16 -39 -57 -59 -112 -54
l-39 3 -3 123 -3 122 38 0 c21 0 53 -9 71 -20z"/>
<path d="M1170 700 c0 -5 7 -10 15 -10 13 0 15 -21 15 -130 0 -112 -2 -130
-17 -139 -15 -9 57 -14 165 -11 9 0 23 52 16 59 -2 3 -11 -5 -20 -17 -15 -22
-38 -27 -68 -16 -12 5 -16 20 -16 60 l0 54 35 0 c25 0 35 -4 35 -16 0 -8 5
-12 10 -9 6 3 10 19 10 34 0 28 -1 28 -45 23 l-45 -5 0 52 0 51 35 0 c22 0 38
-6 44 -17 9 -16 10 -16 11 -1 0 9 3 23 6 32 5 14 -6 16 -90 16 -57 0 -96 -4
-96 -10z"/>
<path d="M1582 704 c-21 -9 -43 -62 -36 -87 3 -13 30 -48 60 -78 30 -29 54
-60 54 -69 0 -24 -21 -40 -52 -40 -21 0 -33 8 -48 33 l-20 32 0 -41 c0 -35 4
-43 23 -48 62 -16 119 7 136 55 15 43 -5 85 -62 132 -48 40 -58 65 -32 87 20
17 62 5 70 -20 10 -32 27 -23 23 13 -3 31 -4 32 -53 34 -27 1 -56 -1 -63 -3z"/>
<path d="M2380 679 c0 -28 1 -29 16 -15 8 9 31 16 50 16 l34 0 0 -129 c0 -115
-2 -130 -17 -134 -10 -3 14 -5 52 -5 51 -1 64 2 48 8 -22 9 -23 14 -23 135 l0
125 34 0 c19 0 41 -7 49 -15 13 -12 15 -11 19 10 3 14 3 27 0 30 -3 3 -63 5
-134 5 l-128 0 0 -31z"/>
<path d="M2740 692 c-49 -26 -83 -93 -77 -151 12 -111 133 -173 237 -119 57
30 84 76 84 144 0 59 -19 95 -67 124 -42 26 -130 27 -177 2z m120 -17 c50 -26
76 -98 61 -167 -34 -151 -223 -64 -196 91 13 78 70 110 135 76z"/>
<path d="M3078 697 c-50 -39 -38 -96 36 -165 25 -24 46 -52 46 -62 0 -49 -76
-53 -100 -5 l-15 30 -3 -39 c-4 -45 -4 -45 42 -53 47 -7 93 13 112 49 24 46
10 81 -52 134 -55 47 -65 72 -39 94 20 17 66 4 72 -20 9 -32 25 -23 21 13 -3
31 -4 32 -53 34 -30 2 -57 -2 -67 -10z"/>
</g>
</svg>
